Godzilla, Mothra and King Ghidorah - Giant Monsters All Out Attack (2001) DVDRip

Original Japanese version.
 
http://www.imdb.com/title/tt0279112/



General
Complete name                    : D:Godzilla,Mothra & King Ghidorah - Giant Monsters All Out AttackDVD_VIDEO.Title1.avi
Format                           : AVI
Format/Info                      : Audio Video Interleave
File size                        : 1.81 GiB
Duration                         : 1h 45mn
Overall bit rate                 : 2 460 Kbps
Movie name                       : DVD_VIDEO.Title1.DVDRip
Writing application              : Lavf52.33.0
Original source form/Name        : DVD_VIDEO

Video
ID                               : 0
Format                           : AVC
Format/Info                      : Advanced Video Codec
Format profile                   : Baseline@L1.3
Format settings, CABAC           : No
Format settings, ReFrames        : 1 frame
Codec ID                         : H264
Duration                         : 1h 45mn
Bit rate                         : 2000 Kbps
Width                            : 800 pixels
Height                           : 340 pixels
Display aspect ratio             : 2.35:1
Frame rate                       : 29.970 fps
Resolution                       : 24 bits
Colorimetry                      : 4:2:0
Scan type                        : Progressive
Bits/(Pixel*Frame)               : 0.245
Stream size                      : 1.47 GiB (81%)
Writing library                  : x264 core 67


Audio
ID                               : 1
Format                           : AC-3
Format/Info                      : Audio Coding 3
Codec ID                         : 2000
Duration                         : 1h 45mn
Bit rate mode                    : Constant
Bit rate                         : 448 Kbps
Channel(s)                       : 6 channels
Channel positions                : Front: L C R, Surround: L R, LFE
Sampling rate                    : 48.0 KHz
Stream size                      : 338 MiB (18%)
Alignment                        : Aligned on interleaves
Interleave, duration             : 32 ms (0.96 video frame)
Interleave, preload duration     : 32 ms

Subtitles: English, French